<svg xmlns="http://www.w3.org/2000/svg" viewBox="0 0 68.31 65.3"><defs><style>.cls-1{opacity:0.67;}</style></defs><g id="Layer_2" data-name="Layer 2"><g id="main"><g class="cls-1"><path d="M51.6,33.68c-.59,2-1.15,4-1.7,5.9-.26.89-.47,1.8-.77,2.68a.78.78,0,0,0,.25.94c2.15,2.08,4.27,4.2,6.44,6.27a3.89,3.89,0,0,1,1.3,3.06c0,3.26,0,6.52,0,9.79a2.91,2.91,0,0,1-3.86,2.82,3,3,0,0,1-2-2.92c0-2.78,0-5.57,0-8.35a1.68,1.68,0,0,0-.44-1c-2-2-4-3.91-6-5.94-.12.29-.22.5-.31.71-1,2.3-1.91,4.59-2.84,6.9a3,3,0,0,1-3,2.07c-3.7,0-7.39,0-11.08,0a3,3,0,0,1-3.14-3,3,3,0,0,1,3.2-3q4.32,0,8.64,0a.75.75,0,0,0,.84-.55C38.22,47,39.62,44,40.76,40.8c1.07-3,1.87-6.07,2.79-9.12,0,0,0-.09,0-.22l-3.79,1.21c-.6.18-1.18.42-1.78.56a1.39,1.39,0,0,0-1.15,1.16c-.42,1.69-.94,3.36-1.38,5a3,3,0,1,1-5.78-1.34c.69-2.59,1.44-5.17,2.18-7.74a2.81,2.81,0,0,1,1.94-2c3.77-1.24,7.55-2.45,11.32-3.68a3,3,0,0,1,2.23.17c2.18,1,4.37,2,6.53,3a4.79,4.79,0,0,1,1.32,1C56.79,30.51,58.42,32.21,60,34a.91.91,0,0,0,1.32.23c.87-.45,1.78-.83,2.68-1.23a3,3,0,1,1,2.46,5.39c-1.69.82-3.38,1.65-5.08,2.44a3.21,3.21,0,0,1-4.31-1.25,23.9,23.9,0,0,0-2-2.18C54,36.15,52.83,35,51.6,33.68Z"/><path d="M23.34,44.28,26.45,44c.84-.07,1.34.27,1.42,1s-.33,1.23-1.16,1.34c-7.52,1-14.16-.94-19.59-6.24a22.77,22.77,0,0,1-7-14.86A22.89,22.89,0,0,1,3.52,11,21.93,21.93,0,0,1,21.14.1c8.65-.73,15.64,2.6,20.8,9.56a22.22,22.22,0,0,1,3.9,9.1c.1.54.15,1.12-.38,1.43a1.37,1.37,0,0,1-1.12.14,1.68,1.68,0,0,1-.75-1,22.13,22.13,0,0,0-3.65-8.36A19.64,19.64,0,0,0,26,2.52,19.83,19.83,0,0,0,8,8.92,20.28,20.28,0,0,0,2.34,23.71,20.83,20.83,0,0,0,9.65,39.15C13.52,42.63,18.07,44.09,23.34,44.28Z"/><path d="M59.8,19.3a5.52,5.52,0,0,1-11,.07,5.52,5.52,0,1,1,11-.07Z"/><path d="M24.28,17.39c0,1.85,0,3.7,0,5.54a1.8,1.8,0,0,1-.57,1.41c-2,2-4.07,4.06-6.1,6.09-.67.67-1.29.74-1.83.23s-.48-1.21.2-1.88c1.84-1.86,3.68-3.71,5.54-5.54A1.45,1.45,0,0,0,22,22.11c0-3.34,0-6.67,0-10v-.43c0-.94.47-1.51,1.18-1.5s1.12.56,1.12,1.47C24.28,13.55,24.28,15.47,24.28,17.39Z"/></g></g></g></svg>