<svg xmlns="http://www.w3.org/2000/svg" viewBox="0 0 59.09 59.12"><defs><style>.cls-1{opacity:0.7;}</style></defs><g id="Layer_2" data-name="Layer 2"><g id="main"><path class="cls-1" d="M8.25,38.63v-.69c0-5.18,0-10.35,0-15.53a.86.86,0,0,0-.71-1,11,11,0,1,1,6,.26l-.61.17a9,9,0,0,0,8.46,5.78c3.13,0,6.27-.06,9.4,0C38.47,27.78,44,31.29,47.57,38a.71.71,0,0,0,.77.47A10.3,10.3,0,1,1,38.56,50a10.11,10.11,0,0,1,4.85-10l.45-.29a14.36,14.36,0,0,0-12.81-8c-3,0-6,0-9,0a13.51,13.51,0,0,1-9.25-3.25,2.48,2.48,0,0,0-.26-.19s0,0-.1,0V38.69a10.29,10.29,0,0,1,7,5.35A10.16,10.16,0,0,1,20.38,51,10.32,10.32,0,0,1,.19,50.84,10.45,10.45,0,0,1,8.25,38.63ZM11,17.86A6.86,6.86,0,1,0,4.13,11,6.84,6.84,0,0,0,11,17.86Zm44,30.9A6.18,6.18,0,1,0,48.81,55,6.19,6.19,0,0,0,55,48.76ZM10.32,42.65a6.16,6.16,0,1,0,0,12.32,6.16,6.16,0,1,0,0-12.32Z"/></g></g></svg>